<mxfile host="app.diagrams.net" agent="Mozilla/5.0 (Windows NT 10.0; Win64; x64) AppleWebKit/537.36 (KHTML, like Gecko) Chrome/132.0.0.0 Safari/537.36 OPR/117.0.0.0 (Edition std-2)" version="26.1.1">
  <diagram name="Página-1" id="QZRI5XEX4v3icSLjuebx">
    <mxGraphModel dx="1390" dy="762" grid="1" gridSize="10" guides="1" tooltips="1" connect="1" arrows="1" fold="1" page="1" pageScale="1" pageWidth="827" pageHeight="1169" math="0" shadow="0">
      <root>
        <mxCell id="0" />
        <mxCell id="1" parent="0" />
        <mxCell id="OdFzUex_ETXGbU3qXnvS-53" value="Inicio" style="ellipse;whiteSpace=wrap;html=1;" vertex="1" parent="1">
          <mxGeometry x="140" y="30" width="120" height="80" as="geometry" />
        </mxCell>
        <mxCell id="OdFzUex_ETXGbU3qXnvS-57" style="edgeStyle=orthogonalEdgeStyle;rounded=0;orthogonalLoop=1;jettySize=auto;html=1;entryX=0.5;entryY=0;entryDx=0;entryDy=0;" edge="1" parent="1" source="OdFzUex_ETXGbU3qXnvS-54" target="OdFzUex_ETXGbU3qXnvS-56">
          <mxGeometry relative="1" as="geometry" />
        </mxCell>
        <mxCell id="OdFzUex_ETXGbU3qXnvS-54" value="&lt;div&gt;&lt;br&gt;&lt;/div&gt;Recebe Salario" style="html=1;strokeWidth=2;shape=manualInput;whiteSpace=wrap;rounded=1;size=26;arcSize=11;" vertex="1" parent="1">
          <mxGeometry x="150" y="170" width="100" height="60" as="geometry" />
        </mxCell>
        <mxCell id="OdFzUex_ETXGbU3qXnvS-55" style="edgeStyle=orthogonalEdgeStyle;rounded=0;orthogonalLoop=1;jettySize=auto;html=1;entryX=0.5;entryY=0.217;entryDx=0;entryDy=0;entryPerimeter=0;" edge="1" parent="1" source="OdFzUex_ETXGbU3qXnvS-53" target="OdFzUex_ETXGbU3qXnvS-54">
          <mxGeometry relative="1" as="geometry" />
        </mxCell>
        <mxCell id="OdFzUex_ETXGbU3qXnvS-59" value="" style="edgeStyle=orthogonalEdgeStyle;rounded=0;orthogonalLoop=1;jettySize=auto;html=1;" edge="1" parent="1" source="OdFzUex_ETXGbU3qXnvS-56" target="OdFzUex_ETXGbU3qXnvS-58">
          <mxGeometry relative="1" as="geometry" />
        </mxCell>
        <mxCell id="OdFzUex_ETXGbU3qXnvS-56" value="novoSalario = Salario + (salario * 10/100)" style="rounded=0;whiteSpace=wrap;html=1;" vertex="1" parent="1">
          <mxGeometry x="140" y="280" width="120" height="60" as="geometry" />
        </mxCell>
        <mxCell id="OdFzUex_ETXGbU3qXnvS-61" style="edgeStyle=orthogonalEdgeStyle;rounded=0;orthogonalLoop=1;jettySize=auto;html=1;entryX=0.5;entryY=0;entryDx=0;entryDy=0;" edge="1" parent="1" source="OdFzUex_ETXGbU3qXnvS-58" target="OdFzUex_ETXGbU3qXnvS-60">
          <mxGeometry relative="1" as="geometry" />
        </mxCell>
        <mxCell id="OdFzUex_ETXGbU3qXnvS-58" value="novoSalario" style="shape=parallelogram;perimeter=parallelogramPerimeter;whiteSpace=wrap;html=1;fixedSize=1;rounded=0;" vertex="1" parent="1">
          <mxGeometry x="140" y="420" width="120" height="60" as="geometry" />
        </mxCell>
        <mxCell id="OdFzUex_ETXGbU3qXnvS-60" value="Fim" style="ellipse;whiteSpace=wrap;html=1;" vertex="1" parent="1">
          <mxGeometry x="140" y="520" width="120" height="80" as="geometry" />
        </mxCell>
        <mxCell id="OdFzUex_ETXGbU3qXnvS-62" value="Descrição Narrativa&lt;div&gt;---------------------------------&lt;/div&gt;&lt;div&gt;1. Usuario Digita salario&lt;/div&gt;&lt;div&gt;2. Calculo feito a partir do salario + 10%&amp;nbsp;&lt;/div&gt;&lt;div&gt;3. Imprimir Salario com aumento&lt;/div&gt;" style="text;html=1;align=center;verticalAlign=middle;resizable=0;points=[];autosize=1;strokeColor=none;fillColor=none;fontSize=19;" vertex="1" parent="1">
          <mxGeometry x="290" y="50" width="370" height="130" as="geometry" />
        </mxCell>
      </root>
    </mxGraphModel>
  </diagram>
</mxfile>
